<svg id="Layer_1" data-name="Layer 1" xmlns="http://www.w3.org/2000/svg" viewBox="0 0 514 513.99"><defs><style>.cls-1{fill:#4d5152;stroke:#434343;stroke-miterlimit:10;stroke-width:2px;}</style></defs><title>1</title><path class="cls-1" d="M256,429.48c-95.65,0-173.48-77.82-173.48-173.48S160.35,82.53,256,82.53A173.91,173.91,0,0,1,384.17,139.1a7.6,7.6,0,1,1-11.23,10.25A158.7,158.7,0,0,0,256,97.73c-87.27,0-158.27,71-158.27,158.27s71,158.27,158.27,158.27,158.27-71,158.27-158.27a157.93,157.93,0,0,0-23.5-83,7.6,7.6,0,1,1,12.94-8,173.13,173.13,0,0,1,25.76,91C429.47,351.66,351.66,429.48,256,429.48Z" transform="translate(1 0.99)"/><path class="cls-1" d="M318.6,512c-11.94,0-23.79-9.18-35.3-18.1-9.34-7.23-19.92-15.43-27.3-15.43s-18,8.2-27.3,15.43c-13.36,10.35-27.18,21.06-41.08,17.35-14.44-3.86-21.18-20.44-27.71-36.46-4.32-10.62-9.22-22.65-15.15-26.09-6.12-3.53-19.16-1.76-30.67-.2-4.06.56-8.26,1.13-12.32,1.51a7.6,7.6,0,0,1-1.44-15.14c3.76-.35,7.8-.9,11.71-1.43,14.61-2,29.71-4,40.34,2.1,10.44,6,16.12,20,21.62,33.52,4.88,12,10.42,25.59,17.55,27.5,6.62,1.76,17.89-7,27.83-14.68,11.82-9.15,24-18.62,36.62-18.62s24.8,9.47,36.61,18.62c9.95,7.71,21.23,16.44,27.84,14.68,7.14-1.91,12.67-15.51,17.55-27.5,5.5-13.51,11.18-27.48,21.62-33.52,10.63-6.14,25.73-4.09,40.34-2.1,12.67,1.72,27,3.67,32.09-1.38s3.1-19.42,1.38-32.1c-2-14.6-4-29.7,2.11-40.33,6-10.44,20-16.13,33.51-21.62,12-4.89,25.6-10.42,27.5-17.55,1.77-6.62-7-17.89-14.67-27.84-9.16-11.81-18.62-24-18.62-36.62s9.46-24.8,18.62-36.61c7.7-9.95,16.44-21.22,14.67-27.83-1.9-7.14-15.5-12.67-27.5-17.55-13.51-5.5-27.47-11.19-33.51-21.63-6.15-10.62-4.1-25.73-2.11-40.33,1.72-12.68,3.68-27-1.38-32.1s-19.42-3.1-32.09-1.38c-14.61,2-29.71,4.05-40.34-2.1-10.44-6-16.12-20-21.62-33.52-4.88-12-10.42-25.59-17.55-27.5-6.61-1.76-17.89,7-27.84,14.68-11.81,9.15-24,18.62-36.61,18.62s-24.8-9.47-36.62-18.62c-9.95-7.71-21.22-16.44-27.83-14.68C184.41,17.36,178.88,31,174,43c-5.5,13.51-11.19,27.47-21.63,33.51-10.62,6.15-25.72,4.1-40.33,2.11C99.36,76.85,85,74.9,79.94,80s-3.1,19.42-1.37,32.1c2,14.6,4,29.71-2.11,40.33-6,10.44-20,16.13-33.52,21.63-12,4.88-25.59,10.41-27.49,17.55-1.77,6.61,7,17.88,14.67,27.83,9.15,11.81,18.62,24,18.62,36.61s-9.47,24.81-18.62,36.62c-7.71,9.95-16.44,21.22-14.67,27.84,1.9,7.13,15.5,12.66,27.49,17.55,13.51,5.49,27.48,11.18,33.52,21.62,6.14,10.63,4.09,25.73,2.11,40.33-1.73,12.68-3.68,27.05,1.37,32.1a7.6,7.6,0,0,1-10.75,10.75c-10.39-10.38-8-27.93-5.69-44.9,1.56-11.5,3.33-24.54-.21-30.67-3.43-5.93-15.46-10.83-26.08-15.15-16-6.52-32.6-13.27-36.46-27.71-3.71-13.9,7-27.71,17.35-41.08C25.33,274,33.53,263.39,33.53,256s-8.2-18-15.43-27.3C7.75,215.34-3,201.52.76,187.63c3.86-14.45,20.43-21.19,36.45-27.71,10.62-4.32,22.65-9.22,26.09-15.15,3.54-6.12,1.77-19.17.2-30.67-2.31-17-4.69-34.52,5.69-44.9s27.93-8,44.9-5.69c11.51,1.56,24.55,3.33,30.67-.21,5.94-3.43,10.84-15.47,15.16-26.08,6.52-16,13.26-32.6,27.71-36.46,13.89-3.71,27.71,7,41.07,17.34C238,25.34,248.62,33.54,256,33.54s18-8.2,27.3-15.44C296.66,7.75,310.48-3,324.38.76c14.44,3.86,21.19,20.43,27.71,36.46,4.32,10.61,9.22,22.65,15.15,26.08,6.12,3.54,19.16,1.77,30.67.21,17-2.31,34.51-4.7,44.9,5.69s8,27.93,5.69,44.9c-1.56,11.5-3.33,24.55.2,30.67,3.44,5.93,15.47,10.83,26.09,15.15,16,6.52,32.6,13.26,36.46,27.71,3.71,13.9-7,27.71-17.35,41.07-7.23,9.34-15.43,19.92-15.43,27.3s8.2,18,15.43,27.3c10.35,13.37,21.06,27.18,17.35,41.08-3.86,14.44-20.44,21.19-36.46,27.71-10.62,4.32-22.65,9.22-26.09,15.15-3.53,6.13-1.76,19.17-.2,30.67,2.31,17,4.7,34.52-5.69,44.9s-27.93,8-44.9,5.7c-11.51-1.57-24.55-3.34-30.67.2-5.93,3.43-10.83,15.46-15.15,26.08-6.52,16-13.27,32.6-27.71,36.46A22.54,22.54,0,0,1,318.6,512Z" transform="translate(1 0.99)"/><path class="cls-1" d="M158.85,230.28a7.61,7.61,0,0,1-5.37-13,43.67,43.67,0,0,1,61.69,0,7.6,7.6,0,0,1-10.75,10.75,28.45,28.45,0,0,0-40.19,0A7.55,7.55,0,0,1,158.85,230.28Z" transform="translate(1 0.99)"/><path class="cls-1" d="M353.14,230.28a7.55,7.55,0,0,1-5.37-2.23,28.45,28.45,0,0,0-40.19,0,7.6,7.6,0,0,1-10.75-10.75,43.67,43.67,0,0,1,61.69,0,7.61,7.61,0,0,1-5.38,13Z" transform="translate(1 0.99)"/><path class="cls-1" d="M256,309a61.41,61.41,0,0,1-43.71-18.11A7.6,7.6,0,0,1,223,280.11a46.63,46.63,0,0,0,65.91,0,7.6,7.6,0,1,1,10.76,10.74A61.41,61.41,0,0,1,256,309Z" transform="translate(1 0.99)"/></svg>