<svg id="Layer_1" data-name="Layer 1" xmlns="http://www.w3.org/2000/svg" viewBox="0 0 485.31 510.93"><defs><style>.cls-1{fill:#434343;}</style></defs><title>3</title><path class="cls-1" d="M417.3,325c-1.4,5.1-5.5,8.7-9.9,8.7-4.6,0-8.7-3.7-10-9.1a7.46,7.46,0,0,0-14.5,3.5c2.9,12.1,13,20.5,24.5,20.5,11.1,0,21.1-8.1,24.3-19.7a7.45,7.45,0,0,0-5.2-9.2A7.63,7.63,0,0,0,417.3,325Z" transform="translate(-13 0.03)"/><path class="cls-1" d="M225.8,260.7a7.49,7.49,0,0,0-2.6,10.3,7.6,7.6,0,0,0,10.3,2.6,72.72,72.72,0,0,1,64.8-5.6,7.5,7.5,0,1,0,5.4-14A88.09,88.09,0,0,0,225.8,260.7Z" transform="translate(-13 0.03)"/><path class="cls-1" d="M360.6,284.9c9,6.6,20.3,9.2,30.8,9.2,10.3,0,19.8-2.4,25.9-5.9,16.8-9.5,24.1-46,23.7-67.7-.2-14.5-3.5-23.2-10-26.6s-20.6-3.8-73.7,20.5a21.26,21.26,0,0,0-11.9,14.7C338.7,261.2,350,277.2,360.6,284.9Zm-.5-52.7a6.13,6.13,0,0,1,3.5-4.2c41.1-18.8,55-20.9,59.2-20.9a3.42,3.42,0,0,1,1.1.1c1.8,2.9,3.6,15.2.5,33.7-3.3,19.8-9.8,31.7-14.5,34.3-8.8,5-28.4,6.5-40.5-2.3C359.2,265.4,356,251.7,360.1,232.2Z" transform="translate(-13 0.03)"/><path class="cls-1" d="M481.6,314.6l-17.3-5.5a5.92,5.92,0,0,1-3.8-3.9,108.32,108.32,0,0,0-7.2-17.6,7.49,7.49,0,1,0-13.3,6.9,102.47,102.47,0,0,1,6.3,15.3,20.63,20.63,0,0,0,13.5,13.6l17.3,5.5a9.45,9.45,0,0,1,6.6,9.1v28.7a9.58,9.58,0,0,1-6.6,9.1l-27.9,8.9a20.34,20.34,0,0,0-11.4,9.2c-10.8,18.7-27.8,34.2-50.6,46a11.37,11.37,0,0,0-5.8,7.7.6.6,0,0,1-.1.4L375,494.9a1.41,1.41,0,0,1-1.4,1h-29a1.4,1.4,0,0,1-1.4-1.2,1.85,1.85,0,0,0-.2-.7l-7.5-25.8a11,11,0,0,0-12.4-8.4,252.21,252.21,0,0,1-38.1,2.8,232.88,232.88,0,0,1-28-1.6,10.92,10.92,0,0,0-12,8.4l-7.2,24.5c-.1.2-.1.5-.2.7a1.4,1.4,0,0,1-1.4,1.2h-29a1.5,1.5,0,0,1-1.4-1l-5.9-44.3a.6.6,0,0,0-.1-.4,10.72,10.72,0,0,0-5.6-7.6c-38.7-20.7-59.2-55.2-59.2-99.9,0-39.2,14.5-69.7,43.1-90.6,26.2-19.2,63.2-29.4,106.9-29.4a269.92,269.92,0,0,1,35.1,2.3,7.47,7.47,0,0,0,2-14.8,284.26,284.26,0,0,0-37.1-2.4c-47,0-87,11.2-115.8,32.3a117.82,117.82,0,0,0-33,36.8,90.21,90.21,0,0,0-29.4-.6,74.87,74.87,0,0,0-21.1,6.2c-22.4-1.6-48.5,12.5-53.8,29.4a7.5,7.5,0,1,0,14.3,4.5c1.9-6,10.2-12.4,20.2-16.1-3.6,7.1-4.4,15.2-2.3,24.1,6.9,29.2,55.3,20.4,53.7-9.3-.6-10.1-4.1-18.2-10.1-23.8a68.48,68.48,0,0,1,21.7-.4c-6.3,15.6-9.5,33-9.5,51.9,0,25.8,6.2,48.9,18.3,68.5,11.1,17.9,26.9,32.6,47,43.6l5.7,42.4a.6.6,0,0,0,.1.4,16.4,16.4,0,0,0,16.1,13.3h29a16.38,16.38,0,0,0,16-12.9l6.4-21.7a255,255,0,0,0,26.4,1.3,266,266,0,0,0,36.9-2.5l6.6,22.8a16.38,16.38,0,0,0,16,12.9h29a16.4,16.4,0,0,0,16.1-13.3.6.6,0,0,1,.1-.4l6-45c24.4-13,42.8-30.1,54.8-50.8a5.61,5.61,0,0,1,3-2.5l27.8-8.9a24.58,24.58,0,0,0,17.1-23.4V338A23.85,23.85,0,0,0,481.6,314.6ZM92.4,327.3c-4.6.7-12-.5-13.4-6.4-2.3-9.6,1.8-18,10-23,9,1.9,13.6,7.8,14.2,17.9C103.6,325,95,326.9,92.4,327.3Z" transform="translate(-13 0.03)"/><path class="cls-1" d="M307.8,81.7a69.45,69.45,0,0,0-32.3-20.9c-10-14.2-23.8-34.4-26.6-38.5A30.31,30.31,0,0,0,229,9.6L173.3.6a46.58,46.58,0,0,0-28,4.1c-2.8,1.4-6.1,2.9-9.5,4.5a7.62,7.62,0,0,0-3.6,10,7.62,7.62,0,0,0,10,3.6c3.5-1.7,6.8-3.2,9.7-4.6A32.33,32.33,0,0,1,171,15.4l55.7,9a15.57,15.57,0,0,1,10,6.3c2.1,3.1,10.4,15.1,18.6,27a69.53,69.53,0,0,0-20.4,3.1c-5.6-4.3-10.9-9.1-16.4-13.7a8,8,0,0,0-3.6-1.7L193,41.8a7.14,7.14,0,0,0-6.1,1.8l-35,30.6a6.39,6.39,0,0,0-1.3,1.5c-5,7.4-4.3,19.1,1.3,25.6l.1.1a19.23,19.23,0,0,0,13.4,6.6l28.6,1.9c12.8.9,29.8,9.3,37,18.5,1.4,1.8,2.9,4.4,2.8,6.7-.2,3.5-4.6,3.3-7.1,3.1-19.7-1.3-39.3-3.4-59-4.1-12.2-.5-24.2.3-36.4.9a48.74,48.74,0,0,1-26.7-6.4L75.1,111.4a30.35,30.35,0,0,0-8.2-3.7v-65l21.6,1.4a11,11,0,0,0,1.8-.2c4.7-1.1,11-3.3,19.5-6.8a7.43,7.43,0,0,0,4.1-9.7,7.51,7.51,0,0,0-9.8-4.1,156.32,156.32,0,0,1-16.3,5.8l-21-1.4V26A13.83,13.83,0,0,0,53,12.2H26.8A13.7,13.7,0,0,0,13,26v94.4a13.83,13.83,0,0,0,13.8,13.8H52.9a14,14,0,0,0,13.4-10.3c.2.1,30.7,17.9,30.7,17.9a63.78,63.78,0,0,0,35,8.4,473.09,473.09,0,0,1,57.1.8A70,70,0,1,0,307.8,81.7ZM51.7,119.2H27.9V27.1H51.7ZM193.2,95s-26.2-1.7-27-1.8c-4-.3-5-5.3-3.7-8.4l31.4-27.4,16.4,2.7,9.1,7.7A68.64,68.64,0,0,0,193.2,95Zm40.1,15.4a81.68,81.68,0,0,0-24.4-12.5,55.07,55.07,0,1,1-3.3,54.3s21.8.4,25.4.5h0c10.6-.6,15.4-9.5,15.4-9.5h0c2.4-5.8,2.6-7.6.1-16.6l-5.1-8.2" transform="translate(-13 0.03)"/></svg>