<svg id="Layer_1" data-name="Layer 1" xmlns="http://www.w3.org/2000/svg" viewBox="0 0 512 451.73"><defs><style>.cls-1{fill:#fff9c5;}.cls-2{fill:#4fc3f7;}.cls-3{fill:#434343;}</style></defs><title>4</title><path class="cls-1" d="M290.15,220.5l0-.06h0Z" transform="translate(0 -30.14)"/><path class="cls-2" d="M508.52,457.18a70.14,70.14,0,0,0-79.13,0,55.19,55.19,0,0,1-62.25,0,70.14,70.14,0,0,0-79.13,0,55.19,55.19,0,0,1-62.25,0,70.15,70.15,0,0,0-79.14,0,55.17,55.17,0,0,1-62.24,0,70.15,70.15,0,0,0-79.14,0,7.53,7.53,0,0,0,8.45,12.46,55.13,55.13,0,0,1,62.24,0,70.15,70.15,0,0,0,79.14,0,55.13,55.13,0,0,1,62.24,0,70.15,70.15,0,0,0,79.14,0,55.15,55.15,0,0,1,62.25,0,70.18,70.18,0,0,0,79.14,0,55.13,55.13,0,0,1,62.24,0,7.52,7.52,0,0,0,8.44-12.46Z" transform="translate(0 -30.14)"/><path class="cls-3" d="M37.11,115.77A48.53,48.53,0,1,0,85.64,67.25,48.58,48.58,0,0,0,37.11,115.77ZM85.64,82.3a33.47,33.47,0,1,1-33.47,33.47A33.51,33.51,0,0,1,85.64,82.3Z" transform="translate(0 -30.14)"/><path class="cls-3" d="M93.16,52.8V37.66a7.53,7.53,0,0,0-15,0V52.8a7.53,7.53,0,0,0,15,0Z" transform="translate(0 -30.14)"/><path class="cls-3" d="M135.55,55.22l-10.71,10.7a7.53,7.53,0,1,0,10.65,10.64l10.7-10.7a7.52,7.52,0,0,0-10.64-10.64Z" transform="translate(0 -30.14)"/><path class="cls-3" d="M163.75,123.3a7.53,7.53,0,0,0,0-15H148.61a7.53,7.53,0,0,0,0,15Z" transform="translate(0 -30.14)"/><path class="cls-3" d="M124.85,155a7.52,7.52,0,0,0,0,10.64l10.7,10.71a7.53,7.53,0,0,0,10.64-10.65L135.49,155A7.52,7.52,0,0,0,124.85,155Z" transform="translate(0 -30.14)"/><path class="cls-3" d="M78.11,178.75v15.13a7.53,7.53,0,1,0,15,0V178.75a7.53,7.53,0,1,0-15,0Z" transform="translate(0 -30.14)"/><path class="cls-3" d="M25.08,176.33a7.54,7.54,0,0,0,10.65,0l10.7-10.71A7.52,7.52,0,0,0,35.79,155l-10.71,10.7A7.53,7.53,0,0,0,25.08,176.33Z" transform="translate(0 -30.14)"/><path class="cls-3" d="M7.53,123.3H22.66a7.53,7.53,0,1,0,0-15H7.53a7.53,7.53,0,1,0,0,15Z" transform="translate(0 -30.14)"/><path class="cls-3" d="M35.72,55.22A7.52,7.52,0,0,0,25.08,65.86l10.71,10.7A7.52,7.52,0,1,0,46.43,65.92Z" transform="translate(0 -30.14)"/><path class="cls-3" d="M390.09,266.92a7.73,7.73,0,0,0,8.14,3.29c17.81-3.23,36.69-1.16,54.63,6s33.29,18.8,44,33.55a7.53,7.53,0,0,0,13.54-3.36c.29-2,6.8-49.36-8.72-101a7.52,7.52,0,1,0-14.41,4.33c9.06,30.13,10.05,59.25,9.49,77a119.7,119.7,0,0,0-89.17-32.87c.12-.38.24-.76.37-1.15a281.52,281.52,0,0,0,12.42-55.27,216.48,216.48,0,0,0,0-51.76,162.73,162.73,0,0,0-6.45-29.35,1.29,1.29,0,0,0-.07-.21c27,14.62,47.76,36.18,61.85,64.28a7.52,7.52,0,1,0,13.45-6.75c-18.67-37.24-48-64-87.11-79.63-53.83-21.46-109.85-14.4-162,20.4-38.94,26-61.73,57.84-62.69,59.18a7.53,7.53,0,0,0,7.52,11.75c17.93-3.33,37-1.29,55,5.91a99.73,99.73,0,0,1,43.54,32.92c2.08,2.81,5.11,4.54,8.67,3.48a95.38,95.38,0,0,1,29.28-.54L261.27,378c-1.52,0-3,0-4.56,0-34.68,0-67.83,3.46-98.52,10.27a7.52,7.52,0,1,0,3.27,14.69c29.2-6.48,62.14-9.91,95.25-9.91,15.7,0,31.41.75,47,2.3h.16c29.05,2.88,56.27,8.42,80.3,16.47,28.69,9.61,50.84,22.27,63.83,36.3a70.89,70.89,0,0,0-18.81,9.07,55.19,55.19,0,0,1-62.25,0,70.12,70.12,0,0,0-79.13,0,55.19,55.19,0,0,1-62.25,0,70.14,70.14,0,0,0-79.14,0,55.17,55.17,0,0,1-62.24,0,70.89,70.89,0,0,0-18.81-9.07c13-14,35.08-26.66,63.71-36.26a7.52,7.52,0,0,0-4.78-14.27c-36,12.06-62.07,28.41-75.92,47.48A70.3,70.3,0,0,0,5.07,457.18a7.52,7.52,0,1,0,8.45,12.45,55.26,55.26,0,0,1,37-9.29,7.24,7.24,0,0,0,1.39.17,55.62,55.62,0,0,1,23.84,9.12,70.1,70.1,0,0,0,79.13,0,55.19,55.19,0,0,1,62.25,0,70.12,70.12,0,0,0,79.14,0,55.17,55.17,0,0,1,62.24,0,70.13,70.13,0,0,0,79.14,0,55.45,55.45,0,0,1,23.78-9.11,8.2,8.2,0,0,0,1.48-.18,55.22,55.22,0,0,1,37,9.29,7.52,7.52,0,1,0,8.45-12.45A70.28,70.28,0,0,0,465,445.06c-13.86-19.09-40-35.46-76-47.52-22.36-7.49-47.32-12.89-73.85-16.1l53.91-135.27A95.25,95.25,0,0,1,390.09,266.92ZM302.33,211.4c.07-.17.16-.33.24-.5a270.16,270.16,0,0,1,24.73-42A7.53,7.53,0,0,0,315.1,160a281.61,281.61,0,0,0-20.57,33.33c-2.2,4.17-4.45,8.4-6.34,12.72l-.1.21a119.72,119.72,0,0,0-87.35-37.48,253.31,253.31,0,0,1,48-42.07c21.3-14.15,43.29-23.38,65.35-27.45A144.36,144.36,0,0,1,378.37,102l-.26.14a166.43,166.43,0,0,0-32,23.07c-3.79,3.46-7.49,7-11,10.75a7.52,7.52,0,1,0,10.89,10.38,171.7,171.7,0,0,1,32.43-26.85,119.83,119.83,0,0,1,17.17-9.08,116.76,116.76,0,0,1,5.53,15.73c9.07,32.69,6.62,68-1.33,100.61q-2.58,10.53-5.93,20.85c0,.07-.05.14-.08.22a115.72,115.72,0,0,0-37.05-26.05l-.58-.26A117.88,117.88,0,0,0,302.33,211.4ZM356,238.18,299.58,379.82c-3.49-.3-7-.56-10.54-.79-3.9-.27-7.82-.46-11.73-.62l59-148.08A105.52,105.52,0,0,1,346.86,234C347.42,234.19,356.05,238.14,356,238.18Z" transform="translate(0 -30.14)"/></svg>