<svg id="icons" xmlns="http://www.w3.org/2000/svg" viewBox="0 0 64 56"><defs><style>.cls-1{fill:none;stroke:#434343;stroke-miterlimit:10;stroke-width:2px;}</style></defs><title>5</title><g id="_08_growing_business" data-name="08_growing_business"><path class="cls-1" d="M951,2425" transform="translate(-930 -2392)"/><path class="cls-1" d="M983,2393c0,7-4.69,12-8,12a4.3,4.3,0,0,1-4-4c0-3.31,5-8,12-8Z" transform="translate(-930 -2392)"/><path class="cls-1" d="M951,2401c0,7,4.69,12,8,12a4.3,4.3,0,0,0,4-4c0-3.31-5-8-12-8Z" transform="translate(-930 -2392)"/><line class="cls-1" x1="37" y1="30" x2="37" y2="9"/><path class="cls-1" d="M975,2401l-6,6a7.65,7.65,0,0,0-2,5" transform="translate(-930 -2392)"/><path class="cls-1" d="M959,2409l6,6a7.65,7.65,0,0,1,2,5" transform="translate(-930 -2392)"/><path class="cls-1" d="M956,2426a16.61,16.61,0,0,1,11-4c7.73,0,14,4.48,14,10" transform="translate(-930 -2392)"/><path class="cls-1" d="M943,2425h9l11,4h9a3,3,0,0,1,0,6H961a3,3,0,0,0-3,3" transform="translate(-930 -2392)"/><path class="cls-1" d="M974,2434l16-5a3,3,0,0,1,3,3,3.49,3.49,0,0,1-1,2l-25,13h-2l-17-6h-4" transform="translate(-930 -2392)"/><line class="cls-1" x1="10" y1="47" x2="8" y2="47"/><line class="cls-1" x1="6" y1="47" x2="4" y2="47"/><path class="cls-1" d="M930,2423h12a1,1,0,0,1,1,1v18a1,1,0,0,1-1,1H930" transform="translate(-930 -2392)"/></g></svg>