<svg id="Layer_1" data-name="Layer 1" xmlns="http://www.w3.org/2000/svg" viewBox="0 0 414.15 430"><defs><style>.cls-1{fill:#efefef;}.cls-2{fill:#fff;}.cls-3{fill:#434343;}.cls-4{fill:#4d5152;}</style></defs><title>6</title><path class="cls-1" d="M252.81,79.66c.08-1.4.22-2.78.22-4.19a75.43,75.43,0,0,0-148.69-18A34.53,34.53,0,0,0,43.16,84.41a59.36,59.36,0,0,0,24.3,113.53H245.6a59.36,59.36,0,0,0,7.21-118.28Z" transform="translate(-8.08)"/><path class="cls-2" d="M352.53,423.18H142.88V273H374.94V400.76A22.41,22.41,0,0,1,352.53,423.18Z" transform="translate(-8.08)"/><path class="cls-3" d="M352,423.18v-6.83H149.21V279.83H367.63V400.76A15.62,15.62,0,0,1,352,416.35V430a29.25,29.25,0,0,0,29.24-29.24V273a6.83,6.83,0,0,0-6.83-6.83H142.39a6.83,6.83,0,0,0-6.83,6.83V423.18a6.83,6.83,0,0,0,6.83,6.82H352Z" transform="translate(-8.08)"/><path class="cls-3" d="M258.42,102.38l-4.92-4.73L98.19,258.94l4.92,4.74-4.75-4.92a12.2,12.2,0,0,0-3.75,8.78A12.38,12.38,0,0,0,97.93,276a12.21,12.21,0,0,0,8.95,3.87H410A12.16,12.16,0,0,0,418.9,276a12.41,12.41,0,0,0,3.33-8.44,12.18,12.18,0,0,0-3.77-8.79l-4.73,4.93,4.92-4.74L263.33,97.65a6.82,6.82,0,0,0-9.83,0l4.92,4.73-4.92,4.73,155.32,161.3.19.19,1-1.06h-1.44l.43,1.06,1-1.06h-.17l-.93-.87-.34.87h1.27l-.93-.87,1,1v-1.45l-1,.48,1,1v-1.45H106.88v1.45l1-1-1-.48v1.45l1-1-.93.87h1.27l-.34-.87-.93.87h-.16l1,1,.42-1h-1.43l1,1,.18-.18,155.31-161.3-4.91-4.73-4.92,4.73Z" transform="translate(-8.08)"/><path class="cls-3" d="M194.77,198.21a19.86,19.86,0,0,0,36.15,1,6.82,6.82,0,1,0-12.27-6,6.21,6.21,0,0,1-11.31-.3,6.82,6.82,0,0,0-12.57,5.31Z" transform="translate(-8.08)"/><path class="cls-3" d="M306.74,192.9a6.21,6.21,0,0,1-11.31.3,6.83,6.83,0,1,0-12.28,6,19.87,19.87,0,0,0,36.16-1,6.82,6.82,0,1,0-12.57-5.31Z" transform="translate(-8.08)"/><path class="cls-4" d="M327.17,423.18v-6.83H279.39V320.79h40.95V423.18h6.83v0H334V314a6.83,6.83,0,0,0-6.82-6.83H272.56a6.83,6.83,0,0,0-6.82,6.83V423.18a6.83,6.83,0,0,0,6.82,6.82h54.61a6.83,6.83,0,0,0,6.82-6.82Z" transform="translate(-8.08)"/><path class="cls-3" d="M231.12,361.75v-6.83h-41V320.79h34.13v41h6.83v0h6.82V314a6.83,6.83,0,0,0-6.82-6.83H183.34a6.83,6.83,0,0,0-6.83,6.83v47.78a6.83,6.83,0,0,0,6.83,6.82h47.78a6.83,6.83,0,0,0,6.82-6.82Z" transform="translate(-8.08)"/><path class="cls-3" d="M244.77,354.92H169.69a6.83,6.83,0,1,0,0,13.65h75.08a6.83,6.83,0,0,0,0-13.65" transform="translate(-8.08)"/><path class="cls-3" d="M218.31,230.3c9,9.75,23.65,15.35,40.11,15.41,16.3-.05,30.83-5.55,39.84-15.12a6.82,6.82,0,1,0-10-9.29c-5.44,6-16.71,10.82-29.84,10.77s-24.63-4.9-30-10.95a6.83,6.83,0,0,0-10.11,9.18Z" transform="translate(-8.08)"/><path class="cls-3" d="M114.51,132.09l0-6.83-20.21-.1V75.08a6.82,6.82,0,0,0-12.53-3.74l-48.72,74.3,5.7,3.75-5.65-3.82a10.12,10.12,0,0,0-1.74,5.68,10.39,10.39,0,0,0,2.72,7,10.11,10.11,0,0,0,7.44,3.28H61.73v50.05a6.82,6.82,0,0,0,12.53,3.74L123,141l-5.71-3.74,5.67,3.8a10.15,10.15,0,0,0-8.44-15.81h0l0,6.82v3.31L112,137.82a3.61,3.61,0,0,0,2.53,1.09V135.4L112,137.82l2.51-2.4H111a3.4,3.4,0,0,0,1,2.4l2.51-2.4h0l-2.9-1.94a3.6,3.6,0,0,0-.59,1.94h3.49l-2.9-1.94,0,.06L75.38,188.73v-34a6.83,6.83,0,0,0-6.82-6.83h-27v3.56L44.19,149a3.65,3.65,0,0,0-2.63-1.15v3.56L44.19,149l-2.42,2.22h3.28a3.23,3.23,0,0,0-.86-2.22l-2.42,2.22h-.21l2.89,1.95a3.52,3.52,0,0,0,.6-1.95H41.56l2.89,1.95,0-.08L80.69,97.93v34a6.83,6.83,0,0,0,6.79,6.82l27,.14h0Z" transform="translate(-8.08)"/><path class="cls-3" d="M196.42,70.66l0-6.82-20.2-.11V13.65a6.83,6.83,0,0,0-12.54-3.74L115,84.21,120.7,88,115,84.14a10.2,10.2,0,0,0-1.74,5.68,10.43,10.43,0,0,0,2.73,7,10.09,10.09,0,0,0,7.44,3.28h20.17v50.05a6.82,6.82,0,0,0,12.53,3.74l48.72-74.31-5.71-3.74,5.67,3.8A10.08,10.08,0,0,0,206.58,74a10.15,10.15,0,0,0-10.16-10.16h0l0,6.82V74l-2.53,2.42a3.53,3.53,0,0,0,2.53,1.09V74l-2.53,2.42,2.5-2.4h-3.46a3.49,3.49,0,0,0,.95,2.4l2.51-2.4h0l-2.9-1.94a3.51,3.51,0,0,0-.59,1.94h3.49l-2.9-1.94,0,.06L157.29,127.3v-34a6.81,6.81,0,0,0-6.82-6.82h-27V90l2.62-2.41a3.62,3.62,0,0,0-2.62-1.14V90l2.62-2.41-2.42,2.22H127a3.18,3.18,0,0,0-.86-2.22l-2.42,2.22h-.2l2.89,2a3.51,3.51,0,0,0,.59-2h-3.48l2.89,2,0-.08L162.6,36.5v34a6.84,6.84,0,0,0,6.79,6.82l27,.13h0V70.66Z" transform="translate(-8.08)"/><path class="cls-3" d="M245.26,416.35H61A6.83,6.83,0,0,0,61,430H245.26a6.83,6.83,0,1,0,0-13.65" transform="translate(-8.08)"/></svg>