<svg id="Layer_7" data-name="Layer 7" xmlns="http://www.w3.org/2000/svg" viewBox="0 0 338.59 142.36"><defs><style>.cls-1,.cls-2{fill:#434343;}.cls-2{stroke:#434343;stroke-miterlimit:10;}</style></defs><title>Vector Smart Object</title><path class="cls-1" d="M135.41,502.68a4.91,4.91,0,0,0,1.76-.19,99.09,99.09,0,0,1,10.59-1.24c3.51-.21,7.09-.28,10.73-.19a10.78,10.78,0,0,1,5.07,1.62,11.7,11.7,0,0,1,3.51,3.71q1.81,3-1.43,3c-1.3,0-2.6,0-3.9-.07s-2.56-.06-3.77-.06c-2,0-4,0-6.05.06s-4,.16-6,.33a26.34,26.34,0,0,1-4.16.19,25.37,25.37,0,0,0-4,.2,2.24,2.24,0,0,0-1.43.58,2.71,2.71,0,0,0-.52,1.37q-.78,6.63-1.82,13.19t-2.34,13.2c-.17,1-.37,2.1-.58,3.18a27.41,27.41,0,0,0-.46,3.45c1.3-.44,2.56-.83,3.77-1.17h0c2-.52,7.58-2,9.49-2.34a32.39,32.39,0,0,1,5.85-.52,6.6,6.6,0,0,1,4,1.75,6.4,6.4,0,0,1,2.28,3.58q.51,1.82-1.56,2.34c-1.65.43-3.27.84-4.88,1.23s-3.27.8-5,1.24l-7.09,1.82-7.21,1.82a2.85,2.85,0,0,0-2.21,2.08q-.78,5.71-1.75,11.43t-2,11.44a8.39,8.39,0,0,0-.19,1,1.49,1.49,0,0,0,.45,1.1q3.76-.64,7.67-1.1t7.8-1a41.82,41.82,0,0,1,5.65-.39,15.48,15.48,0,0,1,5.53,1,12.27,12.27,0,0,1,4.42,3q2.34,2.22-.78,3.25a10.12,10.12,0,0,1-3,.85c-1,.13-2.12.28-3.25.45q-6.63.92-13.26,1.69l-13.39,1.56c-.69.18-1.26.31-1.69.39H119c-1,0,.94-.3,0-.91a14.17,14.17,0,0,1-2.73-2.14,9.42,9.42,0,0,1-2-2.8,7.11,7.11,0,0,1-.72-3,51,51,0,0,1,1.11-9.23q1-4.55,1.62-9.23A224.11,224.11,0,0,1,122,537.91c2.43-8.62,3.59-15.82,5.93-24.66,0-1.62,0-1.13-.08-2.46,0-.69.41-1.56.2-1.87s-.42-.58-.59-.84q-1-1.31-.84-1.95c.13-.43.71-.87,1.75-1.3a4.32,4.32,0,0,1,1.95-.52,18.28,18.28,0,0,0,3.17-1.34" transform="translate(-113.52 -451.93)"/><path class="cls-1" d="M166,578c0,2.27,2.38,3.68,3.12,4.23s2.15.47,4.23-.23A14.72,14.72,0,0,0,177,580.1c1-.74,2.1-1.56,3.19-2.45a48.51,48.51,0,0,0,10.68-13.94,2.56,2.56,0,0,1,1.78-1.34,1.87,1.87,0,0,1,1.78.74,1.22,1.22,0,0,1,.15,1.34,10.28,10.28,0,0,1-.74,1.7c-.3.55-.59,1.07-.89,1.56q-2.67,4.31-5.64,8.38a39.37,39.37,0,0,1-7,7.35,17.16,17.16,0,0,1-5.94,3.11,12.57,12.57,0,0,1-6.67,0,2.3,2.3,0,0,0-1-.37,2.31,2.31,0,0,1-1-.37c-1.29-.89-2.52-1.83-3.71-2.82a19.18,19.18,0,0,1-3.12-3.26,10.09,10.09,0,0,1-2.15-4.08,12.64,12.64,0,0,1-.22-4.53,43.83,43.83,0,0,1,2.67-10.46,26.32,26.32,0,0,1,5.94-8.82,9.52,9.52,0,0,1,7-3,15.08,15.08,0,0,1,7.27,1.93c.69.49,1.38,1,2.08,1.63.39.49.44.89.14,1.19-.19.49-.49.64-.89.44-1.68-.49-4.91-.32-5.71.52a24.23,24.23,0,0,0-2.22,2.75,30.13,30.13,0,0,0-5,9.42A42.51,42.51,0,0,0,166,577.21Z" transform="translate(-113.52 -451.93)"/><path class="cls-1" d="M230.37,552.86c0-.84-.24-1.33-.72-1.45a3.73,3.73,0,0,0-1.63,0,25.81,25.81,0,0,0-3.08.19l-3.08.36a30,30,0,0,1-7-.09,23.38,23.38,0,0,1-6.8-2.09,10,10,0,0,0-7.06-1.26,9.17,9.17,0,0,0-5.8,4.34,47.14,47.14,0,0,0-2.81,5,29.38,29.38,0,0,0-1.9,5.16q-1.63,8.16.54,12.23t8.16,7.16l.18.18a7.82,7.82,0,0,0,5.52,1.63,11.55,11.55,0,0,0,5.17-2.18,12.74,12.74,0,0,0,4.35-4.89,29.92,29.92,0,0,0,3.08-10.23,19.09,19.09,0,0,0-2-10.42,11.74,11.74,0,0,1,2.81-.37h2.81a15.05,15.05,0,0,0,3.81-.09c1.2-.18,2.41-.39,3.62-.63A2.19,2.19,0,0,0,230.37,552.86ZM211,568c-.23.61-.19.71-.39,1.26l0,.08a15.78,15.78,0,0,1-1.93,4.74h0l-.13.17-.22.29a5.14,5.14,0,0,1-4.12,2.25,2.89,2.89,0,0,1-1-.12,3.62,3.62,0,0,1-2.78-2.49l0,0a.53.53,0,0,0,0-.13s0-.07,0-.11a4.93,4.93,0,0,1,0-1.44c.12-.87.14-.91.28-1.77a41.9,41.9,0,0,1,3.86-13.7c.72-1.45,5.57-1.51,6.53-.18a5.37,5.37,0,0,1,1.45,4A31.89,31.89,0,0,1,211,568Z" transform="translate(-113.52 -451.93)"/><path class="cls-1" d="M228.09,581.48a13.24,13.24,0,0,1-1.37-1.63,1.6,1.6,0,0,1-.13-1.62,10.17,10.17,0,0,1,.91-1.37,28.81,28.81,0,0,1,2.8-3.12c1-1,2-1.9,2.92-2.86a15.2,15.2,0,0,0,1.43-1.56Q236,568,234.26,567a8.42,8.42,0,0,0-1.1-.45c-.39-.13-.8-.28-1.24-.46a9,9,0,0,1-4.55-2.73,25.83,25.83,0,0,1-3-4.29,4.87,4.87,0,0,1,0-5.07,23.08,23.08,0,0,1,12.74-11.18,5.34,5.34,0,0,1,3.45-.13,5.21,5.21,0,0,1,2.66,2,2,2,0,0,1,0,3c-.78,1-1.58,1.89-2.4,2.8l-2.54,2.79c-.95,1-1.86,2.11-2.73,3.19a28.13,28.13,0,0,0-2.34,3.44,3.32,3.32,0,0,0-.58,1.5c0,.21.45.54,1.23,1s1.37.85,2,1.24a7.26,7.26,0,0,1,1.75,1.49,1.78,1.78,0,0,0,1.11.65,1.89,1.89,0,0,0,1.1-.52c1.48-1.12,3-2.21,4.42-3.25a29.23,29.23,0,0,1,4.81-2.73,2.61,2.61,0,0,1,1.3-.52,1.08,1.08,0,0,1,1.56.65.43.43,0,0,1-.06.65c-.22.18-.41.35-.59.52l-4.61,3.58-4.62,3.57a3.59,3.59,0,0,0-1.23,1.37,2.62,2.62,0,0,0-.07,1.75,5.44,5.44,0,0,1,0,2.41,6.87,6.87,0,0,1-.91,2.14,12.9,12.9,0,0,1-9.75,6.76A2.38,2.38,0,0,1,228.09,581.48Z" transform="translate(-113.52 -451.93)"/><path class="cls-1" d="M269.82,564a14.81,14.81,0,0,0-.85,1.69c-.52.87-1,1.71-1.56,2.54s-1.08,1.62-1.69,2.4q-3.9,4.29-9,1.3a10.39,10.39,0,0,1-4.74-5.33,14.5,14.5,0,0,1-.59-6.89,57.53,57.53,0,0,1,1.11-6,53.22,53.22,0,0,1,1.75-5.85,10.74,10.74,0,0,1,1-2.14l1.23-2a2.35,2.35,0,0,1,2.47-1c1.82.18,2.19.87,3.1,2.08a5.3,5.3,0,0,1,.84,4.42c-.26,1.48-.56,2.93-.91,4.36s-.65,2.88-.91,4.35-.45,3.1-.58,4.62a25.15,25.15,0,0,0,.06,4.74c.69,0,2.19-.21,2.5-.65a5.78,5.78,0,0,1,1.1-1.17,66.47,66.47,0,0,0,6.24-9.23q1.43-2.21,2.66-4.55c.83-1.56,1.72-3.07,2.67-4.55a11.47,11.47,0,0,0,.65-1.56l.52-1.56a1.66,1.66,0,0,1,2.21-1.17,3.67,3.67,0,0,1,3.51,3.51,34.12,34.12,0,0,1,.13,5.14c-.09,1.69-.26,3.4-.52,5.13a117.32,117.32,0,0,1-2.15,11.77,82.69,82.69,0,0,1-3.57,11.37,51.71,51.71,0,0,1-2.34,5.07,23.82,23.82,0,0,1-3.25,4.68,19.68,19.68,0,0,1-4.55,4,5.74,5.74,0,0,1-3.83.72,5.57,5.57,0,0,1-3.32-1.76,1.27,1.27,0,0,1,0-2A53.77,53.77,0,0,0,266,577.06q2.41-7.09,5-14.24a.38.38,0,0,0-.13-.26A7.17,7.17,0,0,0,269.82,564Z" transform="translate(-113.52 -451.93)"/><path class="cls-1" d="M291.78,581.48a12.36,12.36,0,0,1-1.36-1.63,1.58,1.58,0,0,1-.13-1.62,9.3,9.3,0,0,1,.91-1.37,28.72,28.72,0,0,1,2.79-3.12c1-1,2-1.9,2.93-2.86a16.5,16.5,0,0,0,1.43-1.56Q299.64,568,298,567a9.19,9.19,0,0,0-1.11-.45c-.39-.13-.8-.28-1.23-.46a8.92,8.92,0,0,1-4.55-2.73,24.69,24.69,0,0,1-3-4.29,4.82,4.82,0,0,1,0-5.07,23,23,0,0,1,12.74-11.18,5.14,5.14,0,0,1,6.11,1.82,2.05,2.05,0,0,1,0,3c-.78,1-1.59,1.89-2.41,2.8L302,553.2c-1,1-1.87,2.11-2.73,3.19a26,26,0,0,0-2.34,3.44,3.26,3.26,0,0,0-.59,1.5c0,.21.46.54,1.24,1s1.36.85,2,1.24a7.3,7.3,0,0,1,1.76,1.49,1.74,1.74,0,0,0,1.1.65,1.94,1.94,0,0,0,1.11-.52C305,564,306.49,563,308,561.91a28.43,28.43,0,0,1,4.81-2.73,2.54,2.54,0,0,1,1.3-.52,1.08,1.08,0,0,1,1.55.65.42.42,0,0,1-.06.65c-.22.18-.41.35-.59.52-1.56,1.22-3.09,2.41-4.61,3.58l-4.61,3.57a3.63,3.63,0,0,0-1.24,1.37,2.57,2.57,0,0,0-.06,1.75,5.75,5.75,0,0,1,0,2.41,7.38,7.38,0,0,1-.91,2.14,12.94,12.94,0,0,1-9.75,6.76A2.39,2.39,0,0,1,291.78,581.48Z" transform="translate(-113.52 -451.93)"/><path class="cls-1" d="M337,555.89q-1.08,2.68-2.3,5.31c-1.52,3.28-3.23,6.47-5,9.6s-3.89,6.26-7.92,6.17-5.76-5-6.51-8.37c-1.76-7.91-.14-16.64,1.6-24.43.75-3.37,1.63-6.73,2.68-10-1.49.34-3,.67-4.47,1.05-3.67.95-5.07-5.57-1.67-6.8a35,35,0,0,1,9-2c.53-1.25,1.08-2.5,1.66-3.73.84-1.74,1.95-3.11,2.89-4.8,1.59-2.85,6-.4,5.27,2.49-.54,2.13-1.16,4.24-1.83,6.34a5,5,0,0,1,3,1.85,1.42,1.42,0,0,1-.35,2.1,15.09,15.09,0,0,1-4.49,1.58c-1.24,3.7-2.47,7.41-3.41,11.21A120.84,120.84,0,0,0,321.72,563c-.15,1.89-.64,9.21,2,9.64.64.1,1.88-1.38,2.28-1.85a26.68,26.68,0,0,0,2.36-3.55c1.55-2.56,2.78-5.33,4.41-7.83.46-.7,3.57-6.14,4.64-6.31a.23.23,0,0,1,.27.14C338.07,553.91,337.2,555.31,337,555.89Z" transform="translate(-113.52 -451.93)"/><path class="cls-1" d="M359.61,549.68a12.41,12.41,0,0,1-2.67,4.86c-3.57,4.35-10.31,8.59-16.34,7.89a3,3,0,0,0,0,.31c-.19,2.42,1.95,4.75,3.85,6,2.36,1.56,5.58.75,7.91-.37.63-.3.92.76.52,1.12-2.81,2.57-5.87,3.21-9.55,3a9.73,9.73,0,0,1-8.92-7.46c-2.07-7.62,2.58-15.87,8.87-20,3.4-2.21,8.35-4.3,12.42-2.74A6.58,6.58,0,0,1,359.61,549.68Zm-5.31.5c-.47-2.1-5.49,1-6.11,1.37a19.46,19.46,0,0,0-6.77,7.89,31.77,31.77,0,0,0,3.44-1.06,17.6,17.6,0,0,0,6.52-4C352,553.71,354.53,551.23,354.3,550.18Z" transform="translate(-113.52 -451.93)"/><path class="cls-1" d="M398.64,575.85c-.19,2.54-2.44,1.88-3.87.55a8.57,8.57,0,0,1-1.84-2.75c-2.25-4.89-.92-9.06.55-14,.63-2.13,1.29-4.27,1.85-6.43.47-1.82,1.46-4.33.93-6.21a1.51,1.51,0,0,0-.68-1,1.67,1.67,0,0,0-1-.1c-2.41.34-4.28,2.1-5.73,4-2.72,3.47-4.35,7.62-6.61,11.37-1,1.71-4.52,1-4.05-1.21.55-2.62,1.09-5.24,1.66-7.85a70.53,70.53,0,0,0,1.7-7.14v-.17a21.75,21.75,0,0,0-1.95,1.89,27,27,0,0,0-2.64,4.21,63.38,63.38,0,0,0-4,11.36c-1.24,4.21-1.75,9-5.53,11.84-1.65,1.23-4.42.91-5.13-1.34-1.81-5.7-1.63-11.94-.58-17.78s3-12.77,7.31-17a2.9,2.9,0,0,1,4.86,2.89c-1.43,4.94-3.54,9.61-4.51,14.69a50.64,50.64,0,0,0-.81,8.41c1.11-2.61,2-5.37,3.1-7.82,1.82-3.91,3.32-7.73,6.06-11.14,1-1.3,2.64-3.89,4.42-4a3.21,3.21,0,0,1,3.33,2.91,14.53,14.53,0,0,1-.39,4.59,23.19,23.19,0,0,1,1.74-2.11c3.33-3.55,8.21-6.4,13.17-6.43a3.26,3.26,0,0,1,3,2.53C405.6,553.93,399.48,564.69,398.64,575.85Z" transform="translate(-113.52 -451.93)"/><path class="cls-1" d="M155.5,583.34a46.56,46.56,0,0,0,7.47.41c4.43-.08,1.6,1.22,1.6,1.22l-10.66,1.95Z" transform="translate(-113.52 -451.93)"/><path class="cls-2" d="M426.28,511.54c3.54-.11,7-.59,10.53-1,2.14-.25,4.28-.47,6.44-.63.6,0,1.2,0,1.81,0,1.64,0,1,.4-.46-.78,3,1.07,9.3-.83,5.16-4.2-3.11-2.54.32-1.36-9.92-.72-4.19.34-8.73,1.35-12.58,1.47-5.57.16-6.59,6.06-1,5.89Z" transform="translate(-113.52 -451.93)"/><path class="cls-2" d="M400.46,530c6.44.72,12.74-1.44,19.09-.75,5.61.6,11.1-6.45,5.53-7-6.42-.69-17.52,1.52-23.93.81-5.61-.62-6.26,6.38-.69,7Z" transform="translate(-113.52 -451.93)"/><path class="cls-2" d="M403.32,526.25c4.37-15.83,26.78-55,34.45-69.77,2.33-4.47-4-5.63-7.45-1.48-8,15.33-27.89,52.89-32.43,69.35-1.34,4.83,4.87,8,6.2,3.12Z" transform="translate(-113.52 -451.93)"/><path class="cls-2" d="M430.13,508.82c1.61-11.51,2.23-39.83,7.86-50.46,2.39-4.52-4.16-6.75-6.53-2.29-5.94,11.21-7.21,39.38-8.91,51.52-.69,4.95,6.89,6.15,7.58,1.23Z" transform="translate(-113.52 -451.93)"/><path class="cls-2" d="M416.81,575.75c2.62-8.15,2.24-13.21,4-21.5,2.06-9.68,4.69-18.87,6.83-28.54,1.08-4.89-5.25-4.93-6.32-.1-2,9-4.08,16.53-6.32,25.49-2.06,8.26-3.45,16.26-6.07,24.4-1.52,4.77,5.84,5.79,7.37,1Z" transform="translate(-113.52 -451.93)"/><path class="cls-2" d="M416.44,577.88c-2.19,4.56-7.08,2.12-4.87-2.48,11.31-23.54,23.17-46.4,34.67-69.87,2.22-4.54,7-2.62,4.79,2Z" transform="translate(-113.52 -451.93)"/></svg>